<svg viewBox="0 0 192 192" xmlns="http://www.w3.org/2000/svg">
  <!-- Background circle with subtle shadow -->
  <defs>
    <linearGradient id="shadowGradient" x1="0%" y1="0%" x2="100%" y2="100%">
      <stop offset="0%" style="stop-color:#000000;stop-opacity:0.1" />
      <stop offset="100%" style="stop-color:#000000;stop-opacity:0.05" />
    </linearGradient>
  </defs>
  
  <!-- Outer shadow -->
  <!-- <circle cx="98" cy="98" r="80" fill="url(#shadowGradient)" /> -->
  
  <!-- Main spinner wheel -->
  <g transform="translate(96,96)">
    <!-- Spinner segments -->
    <!-- Red segment -->
    <path d="M 0,0 L 0,-70 A 70,70 0 0,1 49.5,-49.5 Z" fill="#FF5722" />
    
    <!-- Orange segment -->
    <path d="M 0,0 L 49.5,-49.5 A 70,70 0 0,1 70,0 Z" fill="#FF9800" />
    
    <!-- Green segment -->
    <path d="M 0,0 L 70,0 A 70,70 0 0,1 49.5,49.5 Z" fill="#4CAF50" />
    
    <!-- Blue segment -->
    <path d="M 0,0 L 49.5,49.5 A 70,70 0 0,1 0,70 Z" fill="#2196F3" />
    
    <!-- Purple segment -->
    <path d="M 0,0 L 0,70 A 70,70 0 0,1 -49.5,49.5 Z" fill="#9C27B0" />
    
    <!-- Teal segment -->
    <path d="M 0,0 L -49.5,49.5 A 70,70 0 0,1 -70,0 Z" fill="#009688" />
    
    <!-- Yellow segment -->
    <path d="M 0,0 L -70,0 A 70,70 0 0,1 -49.5,-49.5 Z" fill="#FFC107" />
    
    <!-- Pink segment -->
    <path d="M 0,0 L -49.5,-49.5 A 70,70 0 0,1 0,-70 Z" fill="#E91E63" />
    
    <!-- Center circle -->
    <circle cx="0" cy="0" r="20" fill="#FFFFFF" stroke="#E0E0E0" stroke-width="2" />
    
    <!-- Spinner arrow/pointer -->
    <path d="M 0,-18 L 6,-8 L 0,-10 L -6,-8 Z" fill="#757575" />
    
    <!-- Center dot -->
    <circle cx="0" cy="0" r="4" fill="#757575" />
  </g>
  
  <!-- Subtle highlight on top -->
  <circle cx="96" cy="96" r="70" fill="none" stroke="rgba(255,255,255,0.1)" stroke-width="2" />
</svg>